<svg height="32" viewBox="0 0 61 32" width="61"><g fill="currentColor"><path d="m16.2306108.00556497c.1778998.06121472.3689774.11129949.5402883.1947741.5732327.2782487.7708991.7290116.777488 1.25768414v4.82483253 8.77596416c0 .3784182-.0922443.7345765-.4085106 1.0295202-.4348662.4006781-1.1003432.5342375-1.6999314.3394634-.5864104-.1892091-.9883322-.6789268-.9883322-1.2242943v-10.91291418-2.83257181c0-.7512715.3557996-1.16864456 1.1925875-1.41906839.0263555-.00556498.0527111-.02782487.0724777-.03895482.164722.00556497.336033.00556497.5139327.00556497zm28.9505729-.00556497c.0794018.02782301.1521868.06121063.2315886.08346904.621981.18363188 1.0388406.6566231 1.0388406 1.21308336v13.9282003c0 .6955753-.6815323 1.2798586-1.4954011 1.2909878-.840336.0166938-1.5218683-.5063789-1.5748028-1.2075188-.0066169-.1112921-.0132337-.2281487-.0132337-.3394408 0-4.4349882.0132337-8.86997647-.0132336-13.30496473-.0066168-.83469039.3043736-1.41897366 1.3035133-1.65825157.1786541-.0055646.3506914-.0055646.5227287-.0055646zm-.7940869 26.3127651c.0057148-2.6459103 1.7315856-4.9771087 4.428973-5.5249403 1.8858853-.3846478 3.6231857-.005828 5.0976051 1.3112991 1.0800979.9674473 1.6572931 2.2088105 1.8001632 3.6716375.2743106 2.8440621-1.4801342 5.5074564-4.3775398 6.084428-2.1773403.4370997-4.1032292-.099076-5.6119374-1.8299908-.7543541-.8625434-1.16582-1.8940987-1.2801161-3.048042-.0228592-.2214638-.0400036-.4429277-.057148-.6643915zm2.8745463.005828c0 1.6376669 1.2172533 2.896514 2.8059688 2.896514 1.5887154 0 2.8231131-1.2588471 2.8231131-2.884858 0-1.626011-1.2286828-2.8965141-2.8116835-2.8965141-1.6001451 0-2.8173984 1.2530192-2.8173984 2.8848581zm-23.4708035 5.3914618v-2.4992601c.3467375.081561.6822899.1689477 1.0234348.2330313.850066.1572961 1.7057246.2505086 2.5557906.0174773.1789613-.0466062.35233-.133993.5033286-.2446828.4138479-.3029406.4753658-.879693.0894806-1.2175883-.2516643-.2213797-.5760316-.3670242-.8836213-.5068429-.5536614-.2446828-1.1352855-.4078047-1.6721693-.6816164-.8109183-.4136305-1.3981349-1.066118-1.5882813-2.0215461-.3299598-1.6661734.4026629-3.2973922 2.1922756-3.8857961.6934749-.2272054 1.4093199-.3087664 2.1307576-.2272054.6934749.0815609 1.3813572.1805992 2.0748322.2679859v2.3477898c-.4529958-.0873867-.9003989-.1805992-1.3533946-.2505086-.5760316-.0873867-1.1576557-.0990383-1.7169097.1106899-.2516643.0932125-.4697733.238857-.5816241.5068429-.134221.3262438-.0111851.7107453.3467374.9204735.2964046.1747734.6263645.2971148.9563243.4136304.6487346.2272055 1.3142468.4194563 1.8735008.8563899.8892138.6932679 1.2862841 1.6137414 1.2191736 2.767246-.0950731 1.6312188-1.0849527 2.6798594-2.5837533 3.1284445-.7326227.2213797-1.4876155.2971149-2.2537934.2330313-.3914778-.0349547-.7829556-.0582578-1.1744334-.0990383-.3802927-.0466062-.7661779-.1106898-1.1576557-.1689477zm-10.3729242-7.8014091c-.4260608-.1399195-.834849-.308989-1.2551523-.4080986-.944243-.2157093-1.8712133-.1923894-2.72333508.3439688-.85787934.5421882-1.27818265 1.3467256-1.30697054 2.3669723-.0287879 1.0435665.33969719 1.8889138 1.18606137 2.5010618.69090955.4955483 1.47394035.600488 2.29727425.5188683.6275761-.0641298 1.2206068-.2448592 1.8021223-.5480182v1.527455c0 .4139286.0057576.8220273-.0057575 1.2359559 0 .0641298-.0518183.1632395-.1036365.1807294-1.6063646.4722285-3.2127293.5596782-4.7903061-.1165996-1.84242543-.7928774-2.95363827-2.1920728-3.27030514-4.2034162-.2533335-1.5974148.04030305-3.0898899.99606125-4.4074656.86363692-1.1834861 2.04969829-1.8655939 3.46606285-2.139603 1.18606134-.2273692 2.34909244-.0991096 3.50060834.2157093.1439395.0408099.2072728.0991097.2015153.2681791 0 .8861571.0057575 1.7781442.0057575 2.6643013zm27.87198-.0128134c-.5070116-.1516002-.9852157-.3440158-1.4864657-.4314774-1.0658766-.1924156-2.0683767-.0583077-2.9153165.7055239-.5185346.4722928-.8008478 1.0786934-.8757473 1.766725-.0864224.7988162.069138 1.556817.570388 2.2040331.5531036.7171854 1.3078594 1.067032 2.1951297 1.1136782.8296552.0466462 1.6247415-.1282771 2.3737359-.4956159.034569-.0174924.0748994-.0291539.1382759-.0583078v.285708c0 .8163086 0 1.6326172-.0057615 2.443095 0 .0699693-.0518535.180754-.1037069.1982463-1.6593106.4897852-3.3128597.5597545-4.9260783-.1749232-1.7803019-.8104778-2.840417-2.209864-3.1400148-4.1690046-.2592672-1.6967557.0864225-3.2535728 1.1695835-4.6004819.8527013-1.0553704 1.9704313-1.6617711 3.2840522-1.9183252 1.1926295-.233231 2.362213-.104954 3.526035.2099079.1497988.0408155.2016523.104954.1958908.2682157-.0057615.8979394 0 1.7900481 0 2.6530029z"></path><path d="m16.516 21.677h3.097v10.323h-3.097z"></path><path d="m53.674475 9.81090087c0 1.10267533.0066249 2.20535063 0 3.30802593-.0066249.6119559-.4372437 1.1084484-1.099734 1.2758703-.6757401.1674219-1.3779798-.0404122-1.7357246-.5542242-.139123-.1962878-.2384965-.444534-.2451214-.6754608-.0198747-2.2399896-.0132498-4.4799792-.0066249-6.72574197 0-.66968761.6757401-1.24123135 1.4309791-1.27587036 1.0069852-.04618536 1.6429759.64082176 1.6429759 1.20659233.006625 1.14308748 0 2.29194813 0 3.4350356.006625.00577317.0132499.00577317.0132499.00577317zm-31.9970556-.00402823v-3.29678761c0-.69406055.5860561-1.28401201 1.3319458-1.34185039.8657649-.06940606 1.5983351.38751714 1.7515089 1.0989292.0133194.07518989.0133194.15037979.0133194.22556968v6.61092678c0 .676709-.5727367 1.2666605-1.2853277 1.3360665-.8724246.0867576-1.5583767-.3065434-1.7648283-1.0121716-.0332987-.1041091-.0399584-.2197859-.0399584-.3238949-.0066597-1.0989292-.0066597-2.1978585-.0066597-3.29678766zm-14.44662619-.00587216c0-1.13947101-.01329801-2.27894201.006649-3.41841302.01329801-.61890049.6316555-1.16260747 1.32315204-1.21466452.81782765-.06362529 1.52262225.33547877 1.70879435.98329985.033245.12146645.053192.2429329.053192.36439936v6.57075665c0 .6883099-.5651654 1.2782898-1.28990697 1.3534833-.85772168.0867618-1.56251624-.3123423-1.76198639-1.0180045-.03989403-.1446029-.03989403-.3007741-.03989403-.4511611-.00664901-1.0584934 0-2.1169868 0-3.16969602-.00664901 0-.00664901 0 0 0zm31.98812759.00508467c0 1.08743855-.0199347 2.16909295.0066449 3.25653145.0132899.6594043-.5249488 1.3014558-1.3156944 1.376651-.8970645.092548-1.5748465-.3412706-1.7609043-1.0990071-.0132898-.0694109-.0199347-.1388219-.0199347-.2024486v-6.65766921c0-.72303098.677782-1.31302425 1.5083972-1.31885237.8771296-.00574037 1.5682015.56111591 1.5682015 1.30149962.0199347 1.11635982.0132898 2.22693539.0132898 3.34329521zm-36.12380708 1.04308655c0 .4300957-.01328375.8601913 0 1.290287.0265675.6720245-.59776874 1.1988916-1.30180748 1.2687822-.91657875.0860191-1.61397562-.3333242-1.78002249-1.0483582-.01328375-.0698905-.01328375-.1397811-.01328375-.2096716v-2.62358352c0-.66664826.58448499-1.19889163 1.42800311-1.26340598.64426187-.04838576 1.39479374.2419288 1.62725937.94621044.03985124.11290011.03320937.2419288.03320937.36558131.01328375.42471946.00664187.84943895.00664187 1.27415835zm54.71239748-.023515c0-.4297164.0132453-.85943273 0-1.28914907-.0198679-.68217469.6357731-1.2676632 1.5496969-1.27844311.8543201-.00533445 1.5430743.5747826 1.5430743 1.28918602 0 .87017556.0066226 1.74572266 0 2.61589826 0 .6016028-.5761694 1.1602341-1.2715462 1.2408059-.8344521.0966862-1.5496969-.2685727-1.7616212-.9077758-.0397359-.1128005-.0463585-.2417154-.0463585-.3598874-.0198679-.4404593-.0132453-.8755471-.0132453-1.3106348zm-25.8174592.0320873c0 .4413982.006632.8881793 0 1.3295775-.006632.6405657-.5968797 1.1842391-1.3197674 1.2273023-.9085836.0538291-1.5916793-.3552717-1.7243193-1.0442835-.0331599-.1884017-.0397919-.3821862-.0397919-.5759708-.006632-.7320751 0-1.4641501 0-2.19622518 0-.69977763.4841357-1.17885616 1.3263994-1.31881169.8091036-.13457262 1.6845272.38756915 1.7508472 1.05504935.026528.25299653.013264.51137596.013264.76975542-.006632.2529965-.006632.505993-.006632.7536066z"></path></g></svg>