<svg width="48" height="48" viewBox="0 0 48 48" fill="none" xmlns="http://www.w3.org/2000/svg">
<g id="favicon colored 48x48" clip-path="url(#clip0_701_6248)">
<path id="Vector" d="M48 0H0V48H48V0Z" fill="#C4151C"/>
<path id="Vector_2" d="M29.9593 16.6008L26.7653 28.6688L22.965 16.6008H20.5019L17.2449 28.6688L13.4659 16.6008H10.9395L15.8669 31.7672H18.7271L21.7991 20.6949C21.7987 20.6902 21.7983 20.686 21.7978 20.6817L21.8004 20.6894L25.3872 31.7672H28.2266L32.444 16.6008H29.9593Z" fill="white"/>
<path id="Vector_3" d="M2.20605 31.7633L12.737 31.7675V29.3622H4.40511L4.40639 29.3618V16.6007H2.20605V31.7633Z" fill="white"/>
<path id="Vector_4" d="M2.20605 2.20469V14.4003H4.40639V4.40502H43.5961V14.4003H45.7969V2.20469H2.20605Z" fill="white"/>
<path id="Vector_5" d="M41.5297 22.9922H36.5189V19.0056H41.5505C42.0794 19.0056 42.5318 19.2008 42.9077 19.5907C43.2835 19.9806 43.4715 20.45 43.4715 20.9989C43.4715 21.5478 43.2835 22.0172 42.9077 22.4071C42.5318 22.797 42.0794 22.9922 41.5505 22.9922H41.5297ZM45.7947 31.7637L42.3439 25.3107C43.3737 25.0939 44.2126 24.556 44.8597 23.6963C45.5068 22.837 45.8096 21.8654 45.7679 20.7821V20.7604C45.6982 19.6052 45.2564 18.623 44.4422 17.8139C43.6279 17.0052 42.6568 16.6008 41.5297 16.6008H34.2012V31.7672H36.5189V25.3753H39.9981L43.4715 31.7637V31.7672H45.7947V31.7637Z" fill="white"/>
<path id="Vector_6" d="M43.5961 33.9677V43.5948H4.40639V33.9677H2.20605V45.7955H45.7964V33.9677H43.5961Z" fill="white"/>
</g>
<defs>
<clipPath id="clip0_701_6248">
<rect width="48" height="48" fill="white"/>
</clipPath>
</defs>
</svg>
